<svg width="32" height="32" viewBox="0 0 32 32" fill="none" xmlns="http://www.w3.org/2000/svg">
<rect width="32" height="32" rx="16" fill="#F9F9F9"/>
<path opacity="0.5" d="M26 16C26 21.5228 21.5228 26 16 26C10.4772 26 6 21.5228 6 16C6 10.4772 10.4772 6 16 6C21.5228 6 26 10.4772 26 16Z" fill="#EBA500"/>
<path d="M16 21.75C16.4142 21.75 16.75 21.4142 16.75 21V15C16.75 14.5858 16.4142 14.25 16 14.25C15.5858 14.25 15.25 14.5858 15.25 15V21C15.25 21.4142 15.5858 21.75 16 21.75Z" fill="#EBA500"/>
<path d="M16 11C16.5523 11 17 11.4477 17 12C17 12.5523 16.5523 13 16 13C15.4477 13 15 12.5523 15 12C15 11.4477 15.4477 11 16 11Z" fill="#EBA500"/>
</svg>
