<svg width="32" height="32" viewBox="0 0 32 32" fill="none" xmlns="http://www.w3.org/2000/svg">
<rect width="32" height="32" rx="16" fill="#F9F9F9"/>
<path opacity="0.5" d="M7.17157 22.8284C8.34315 24 10.2288 24 14 24L19.75 23.9944C22.3859 23.9668 23.8541 23.8028 24.8284 22.8285C26 21.6569 26 19.7713 26 16C26 12.2288 26 10.3432 24.8284 9.1716C23.8541 8.19727 22.3738 8.02762 19.7379 8H14C10.2288 8 8.34315 8 7.17157 9.17157C6 10.3431 6 12.2288 6 16C6 19.7712 6 21.6569 7.17157 22.8284Z" fill="#EBA500"/>
<path d="M17 16C17 15.4477 16.5523 15 16 15C15.4477 15 15 15.4477 15 16C15 16.5523 15.4477 17 16 17C16.5523 17 17 16.5523 17 16Z" fill="#EBA500"/>
<path d="M12 17C12.5523 17 13 16.5523 13 16C13 15.4477 12.5523 15 12 15C11.4477 15 11 15.4477 11 16C11 16.5523 11.4477 17 12 17Z" fill="#EBA500"/>
<path fill-rule="evenodd" clip-rule="evenodd" d="M19 5.25C19.4142 5.25 19.75 5.58579 19.75 6V8.00559V23.9944V26C19.75 26.4142 19.4142 26.75 19 26.75C18.5858 26.75 18.25 26.4142 18.25 26V6C18.25 5.58579 18.5858 5.25 19 5.25Z" fill="#EBA500"/>
</svg>
