<svg width="32" height="32" viewBox="0 0 32 32" fill="none" xmlns="http://www.w3.org/2000/svg">
<rect width="32" height="32" rx="16" fill="#F9F9F9"/>
<path d="M14.2529 15.3572C14.2529 14.897 14.6305 14.5239 15.0962 14.5239C15.562 14.5239 15.9396 14.897 15.9396 15.3572C15.9396 15.8174 15.562 16.1905 15.0962 16.1905C14.6305 16.1905 14.2529 15.8174 14.2529 15.3572Z" fill="#EBA500"/>
<path fill-rule="evenodd" clip-rule="evenodd" d="M11 15.3572C11 14.0103 11 13.3368 11.4235 12.9184C11.8469 12.5 12.5284 12.5 13.8915 12.5H16.3011C17.6642 12.5 18.3457 12.5 18.7692 12.9184C19.1926 13.3368 19.1926 14.0103 19.1926 15.3572C19.1926 16.704 19.1926 17.3775 18.7692 17.7959C18.3457 18.2143 17.6642 18.2143 16.3011 18.2143H13.8915C12.5284 18.2143 11.8469 18.2143 11.4235 17.7959C11 17.3775 11 16.704 11 15.3572ZM13.53 15.3572C13.53 14.5025 14.2312 13.8096 15.0962 13.8096C15.9612 13.8096 16.6625 14.5025 16.6625 15.3572C16.6625 16.2119 15.9612 16.9048 15.0962 16.9048C14.2312 16.9048 13.53 16.2119 13.53 15.3572ZM12.0842 16.3096C12.0842 16.5068 12.2461 16.6667 12.4457 16.6667C12.6453 16.6667 12.8071 16.5068 12.8071 16.3096L12.8071 14.4048C12.8071 14.2076 12.6453 14.0477 12.4457 14.0477C12.2461 14.0477 12.0842 14.2076 12.0842 14.4048L12.0842 16.3096ZM17.7468 16.6667C17.5472 16.6667 17.3853 16.5068 17.3853 16.3096V14.4048C17.3853 14.2076 17.5472 14.0477 17.7468 14.0477C17.9464 14.0477 18.1082 14.2076 18.1082 14.4048V16.3096C18.1082 16.5068 17.9464 16.6667 17.7468 16.6667Z" fill="#EBA500"/>
<path opacity="0.5" d="M12.0326 18.1125C12.0392 18.188 12.047 18.2603 12.0564 18.3294C12.1147 18.758 12.2395 19.1189 12.5296 19.4056C12.5709 19.4464 12.6137 19.4839 12.658 19.5183C12.9407 19.7753 13.2909 19.8893 13.703 19.9441C14.1208 19.9996 14.652 19.9996 15.3111 19.9995H17.7736C18.4326 19.9996 18.9639 19.9996 19.3817 19.9441C19.8154 19.8864 20.1807 19.7631 20.4707 19.4765C20.7608 19.1899 20.8856 18.829 20.9439 18.4004C21.0001 17.9875 21.0001 17.4626 21.0001 16.8114V16.7591C21.0001 16.1079 21.0001 15.5829 20.9439 15.1701C20.8856 14.7415 20.7608 14.3806 20.4707 14.0939C20.4295 14.0531 20.3866 14.0156 20.3423 13.9812C20.0596 13.7242 19.7094 13.6102 19.2973 13.5555C19.2319 13.5468 19.1638 13.5394 19.0928 13.5333C19.1926 13.95 19.1926 14.525 19.1926 15.3571C19.1926 16.704 19.1926 17.3775 18.7692 17.7959C18.3457 18.2143 17.6642 18.2143 16.3011 18.2143H13.8915C13.0407 18.2143 12.4554 18.2143 12.0326 18.1125Z" fill="#EBA500"/>
<path d="M16.0789 6.25C11.2854 6.25 7.34478 9.913 6.96055 14.5833H6.00002C5.69614 14.5833 5.42229 14.7667 5.30655 15.0477C5.19081 15.3287 5.25606 15.6517 5.47178 15.8657L7.15159 17.5324C7.444 17.8225 7.91567 17.8225 8.20808 17.5324L9.88789 15.8657C10.1036 15.6517 10.1689 15.3287 10.0531 15.0477C9.93738 14.7667 9.66353 14.5833 9.35965 14.5833H8.4668C8.84652 10.7517 12.1048 7.75 16.0789 7.75C18.8484 7.75 21.2727 9.20845 22.6156 11.3928C22.8325 11.7457 23.2944 11.8558 23.6473 11.6389C24.0002 11.422 24.1104 10.9601 23.8934 10.6072C22.2871 7.99427 19.3873 6.25 16.0789 6.25Z" fill="#EBA500"/>
<path opacity="0.5" d="M24.8412 14.4666C24.5491 14.1778 24.0789 14.1778 23.7868 14.4666L22.1005 16.1333C21.8842 16.3471 21.8185 16.6703 21.934 16.9517C22.0496 17.233 22.3236 17.4167 22.6278 17.4167H23.5269C23.1456 21.2462 19.876 24.25 15.8828 24.25C13.1003 24.25 10.6659 22.7903 9.31804 20.6061C9.10051 20.2536 8.63841 20.1442 8.28591 20.3618C7.93342 20.5793 7.82401 21.0414 8.04154 21.3939C9.65416 24.007 12.5641 25.75 15.8828 25.75C20.6907 25.75 24.6476 22.0892 25.0332 17.4167H26.0002C26.3044 17.4167 26.5784 17.233 26.694 16.9517C26.8096 16.6703 26.7438 16.3471 26.5275 16.1333L24.8412 14.4666Z" fill="#EBA500"/>
</svg>
