<svg width="32" height="32" viewBox="0 0 32 32" fill="none" xmlns="http://www.w3.org/2000/svg">
<rect width="32" height="32" rx="16" fill="#F9F9F9"/>
<path opacity="0.5" d="M18.5562 19.5477L18.1007 20.0272C18.1007 20.0272 17.0181 21.167 14.0631 18.0559C11.1081 14.9448 12.1907 13.8051 12.1907 13.8051L12.4775 13.5031C13.1841 12.7592 13.2507 11.565 12.6342 10.6931L11.3733 8.90961C10.6103 7.8305 9.13596 7.68795 8.26145 8.60864L6.69185 10.2611C6.25823 10.7177 5.96765 11.3095 6.00289 11.9659C6.09304 13.6455 6.81071 17.259 10.8154 21.4752C15.0621 25.9462 19.0468 26.1239 20.6763 25.9631C21.1917 25.9122 21.6399 25.6343 22.0011 25.254L23.4217 23.7584C24.3806 22.7489 24.1102 21.0182 22.8833 20.312L20.9728 19.2123C20.1672 18.7486 19.1858 18.8848 18.5562 19.5477Z" fill="#EBA500"/>
<path d="M21 16C23.7614 16 26 13.7614 26 11C26 8.23858 23.7614 6 21 6C18.2386 6 16 8.23858 16 11C16 11.7998 16.1878 12.5558 16.5217 13.2262C16.6105 13.4044 16.64 13.608 16.5886 13.8003L16.2908 14.9133C16.1615 15.3965 16.6035 15.8385 17.0867 15.7092L18.1997 15.4114C18.392 15.36 18.5956 15.3895 18.7738 15.4783C19.4442 15.8122 20.2002 16 21 16Z" fill="#EBA500"/>
</svg>
