<svg width="32" height="32" viewBox="0 0 32 32" fill="none" xmlns="http://www.w3.org/2000/svg">
<rect width="32" height="32" rx="16" fill="#F9F9F9"/>
<path d="M20 10C20 12.2091 18.2091 14 16 14C13.7909 14 12 12.2091 12 10C12 7.79086 13.7909 6 16 6C18.2091 6 20 7.79086 20 10Z" fill="#EB0000"/>
<path opacity="0.5" d="M18.4774 25.9208C17.7513 25.9728 16.9296 26 16 26C8 26 8 23.9853 8 21.5C8 19.0147 11.5817 17 16 17C18.8806 17 21.4056 17.8564 22.8142 19.1412C22.298 19 21.5737 19 20.5 19C18.8501 19 18.0251 19 17.5126 19.5126C17 20.0251 17 20.8501 17 22.5C17 24.1499 17 24.9749 17.5126 25.4874C17.7501 25.725 18.0547 25.8524 18.4774 25.9208Z" fill="#EB0000"/>
<path fill-rule="evenodd" clip-rule="evenodd" d="M20.5 26C18.8501 26 18.0251 26 17.5126 25.4874C17 24.9749 17 24.1499 17 22.5C17 20.8501 17 20.0251 17.5126 19.5126C18.0251 19 18.8501 19 20.5 19C22.1499 19 22.9749 19 23.4874 19.5126C24 20.0251 24 20.8501 24 22.5C24 24.1499 24 24.9749 23.4874 25.4874C22.9749 26 22.1499 26 20.5 26ZM19.3569 20.532C19.1291 20.3042 18.7598 20.3042 18.532 20.532C18.3042 20.7598 18.3042 21.1291 18.532 21.3569L19.675 22.5L18.532 23.6431C18.3042 23.8709 18.3042 24.2402 18.532 24.468C18.7598 24.6958 19.1291 24.6958 19.3569 24.468L20.5 23.325L21.6431 24.468C21.8709 24.6958 22.2402 24.6958 22.468 24.468C22.6958 24.2402 22.6958 23.8709 22.468 23.6431L21.325 22.5L22.468 21.3569C22.6958 21.1291 22.6958 20.7598 22.468 20.532C22.2402 20.3042 21.8709 20.3042 21.6431 20.532L20.5 21.675L19.3569 20.532Z" fill="#EB0000"/>
</svg>
