<svg width="32" height="32" viewBox="0 0 32 32" fill="none" xmlns="http://www.w3.org/2000/svg">
<rect width="32" height="32" rx="16" fill="#F9F9F9"/>
<path opacity="0.6" d="M19 6H18C15.1716 6 13.7574 6 12.8787 6.87868C12 7.75736 12 9.17157 12 12V20C12 22.8284 12 24.2426 12.8787 25.1213C13.7574 26 15.1716 26 18 26H19C21.8284 26 23.2426 26 24.1213 25.1213C25 24.2426 25 22.8284 25 20V12C25 9.17157 25 7.75736 24.1213 6.87868C23.2426 6 21.8284 6 19 6Z" fill="#EBA500"/>
<path opacity="0.4" d="M12 12C12 10.4625 12 9.34287 12.1411 8.5H12C9.64298 8.5 8.46447 8.5 7.73223 9.23223C7 9.96447 7 11.143 7 13.5V18.5C7 20.857 7 22.0355 7.73223 22.7678C8.46447 23.5 9.64298 23.5 12 23.5H12.1411C12 22.6571 12 21.5375 12 20V16.75V15.25V12Z" fill="#EBA500"/>
<path fill-rule="evenodd" clip-rule="evenodd" d="M8.46967 15.4697C8.17678 15.7626 8.17678 16.2374 8.46967 16.5303L10.4697 18.5303C10.7626 18.8232 11.2374 18.8232 11.5303 18.5303C11.8232 18.2374 11.8232 17.7626 11.5303 17.4697L10.8107 16.75L18 16.75C18.4142 16.75 18.75 16.4142 18.75 16C18.75 15.5858 18.4142 15.25 18 15.25L10.8107 15.25L11.5303 14.5303C11.8232 14.2374 11.8232 13.7626 11.5303 13.4697C11.2374 13.1768 10.7626 13.1768 10.4697 13.4697L8.46967 15.4697Z" fill="#EBA500"/>
</svg>
