<svg width="32" height="32" viewBox="0 0 32 32" fill="none" xmlns="http://www.w3.org/2000/svg">
<rect width="32" height="32" rx="16" fill="#F9F9F9"/>
<path d="M10.25 18.75C10.25 19.1642 10.5858 19.5 11 19.5C11.4142 19.5 11.75 19.1642 11.75 18.75V12.75C11.75 12.3358 11.4142 12 11 12C10.5858 12 10.25 12.3358 10.25 12.75V18.75Z" fill="#EBA500"/>
<path fill-rule="evenodd" clip-rule="evenodd" d="M25.1884 12.0038C25.1262 12 25.0584 12 24.9881 12L24.9706 12H22.2149C19.9435 12 18 13.7361 18 16C18 18.2639 19.9435 20 22.2149 20H24.9706L24.9881 20C25.0584 20 25.1262 20 25.1884 19.9962C26.111 19.9397 26.927 19.2386 26.9956 18.2594C27.0001 18.1952 27 18.126 27 18.0619L27 18.0444V13.9556L27 13.9381C27 13.874 27.0001 13.8048 26.9956 13.7406C26.927 12.7614 26.111 12.0603 25.1884 12.0038ZM21.9706 17.0667C22.5554 17.0667 23.0294 16.5891 23.0294 16C23.0294 15.4109 22.5554 14.9333 21.9706 14.9333C21.3858 14.9333 20.9118 15.4109 20.9118 16C20.9118 16.5891 21.3858 17.0667 21.9706 17.0667Z" fill="#EBA500"/>
<path opacity="0.5" d="M25.1394 12.0015C25.1394 10.8209 25.0965 9.55447 24.3418 8.64658C24.2689 8.55894 24.1914 8.47384 24.1088 8.39124C23.3604 7.64288 22.4114 7.31076 21.239 7.15314C20.0998 6.99997 18.6442 6.99999 16.8064 7H14.6936C12.8558 6.99999 11.4002 6.99997 10.261 7.15314C9.08856 7.31076 8.13961 7.64288 7.39124 8.39124C6.64288 9.13961 6.31076 10.0886 6.15314 11.261C5.99997 12.4002 5.99999 13.8558 6 15.6936V15.8064C5.99999 17.6442 5.99997 19.0998 6.15314 20.239C6.31076 21.4114 6.64288 22.3604 7.39124 23.1088C8.13961 23.8571 9.08856 24.1892 10.261 24.3469C11.4002 24.5 12.8558 24.5 14.6935 24.5H16.8064C18.6442 24.5 20.0998 24.5 21.239 24.3469C22.4114 24.1892 23.3604 23.8571 24.1088 23.1088C24.3133 22.9042 24.487 22.6844 24.6346 22.4486C25.0851 21.7291 25.1394 20.8473 25.1394 19.9985C25.0912 20 25.0404 20 24.9882 20L22.2149 20C19.9435 20 18 18.2639 18 16C18 13.7361 19.9435 12 22.2149 12L24.9881 12C25.0403 12 25.0912 12 25.1394 12.0015Z" fill="#EBA500"/>
</svg>
