<svg width="32" height="32" viewBox="0 0 32 32" fill="none" xmlns="http://www.w3.org/2000/svg">
<rect width="32" height="32" rx="16" fill="#F9F9F9"/>
<path opacity="0.5" d="M23.7165 24.3624C25.143 23.5846 26 22.5873 26 21.5C26 20.3475 25.0372 19.2961 23.4537 18.5C21.6226 17.5794 18.9617 17 16 17C13.0383 17 10.3774 17.5794 8.54631 18.5C6.96285 19.2961 6 20.3475 6 21.5C6 22.6525 6.96285 23.7039 8.54631 24.5C10.3774 25.4206 13.0383 26 16 26C19.1066 26 21.8823 25.3625 23.7165 24.3624Z" fill="#EBA500"/>
<path fill-rule="evenodd" clip-rule="evenodd" d="M9 12.5146C9 8.9167 12.134 6 16 6C19.866 6 23 8.9167 23 12.5146C23 16.0844 20.7658 20.2499 17.2801 21.7396C16.4675 22.0868 15.5325 22.0868 14.7199 21.7396C11.2342 20.2499 9 16.0844 9 12.5146ZM16 15C17.1046 15 18 14.1046 18 13C18 11.8954 17.1046 11 16 11C14.8954 11 14 11.8954 14 13C14 14.1046 14.8954 15 16 15Z" fill="#EBA500"/>
</svg>
