<svg width="32" height="32" viewBox="0 0 32 32" fill="none" xmlns="http://www.w3.org/2000/svg">
<rect width="32" height="32" rx="16" fill="#F9F9F9"/>
<path fill-rule="evenodd" clip-rule="evenodd" d="M5.28849 6.76279C5.41948 6.36983 5.84422 6.15746 6.23718 6.28845L6.50209 6.37675C6.51529 6.38115 6.52844 6.38554 6.54156 6.38991C7.16793 6.59867 7.69726 6.7751 8.1135 6.96873C8.55593 7.17456 8.93983 7.42965 9.23092 7.83352C9.52202 8.2374 9.64262 8.68226 9.69798 9.16708C9.75005 9.62318 9.75003 10.1811 9.75001 10.8414L9.75001 13.5C9.75001 14.9354 9.7516 15.9365 9.85315 16.6918C9.95181 17.4256 10.1323 17.8142 10.409 18.091C10.6858 18.3677 11.0744 18.5482 11.8081 18.6468C12.5635 18.7484 13.5646 18.75 15 18.75H22C22.4142 18.75 22.75 19.0857 22.75 19.5C22.75 19.9142 22.4142 20.25 22 20.25H14.9451C13.5775 20.25 12.4752 20.25 11.6083 20.1334C10.7081 20.0124 9.95027 19.7535 9.34835 19.1516C8.74644 18.5497 8.48754 17.7918 8.36653 16.8917C8.24997 16.0247 8.24998 14.9224 8.25 13.5548L8.25001 10.883C8.25001 10.17 8.24887 9.69823 8.20766 9.33722C8.16863 8.99538 8.10048 8.83049 8.01406 8.71059C7.92764 8.59069 7.79276 8.47389 7.4808 8.32877C7.15135 8.17551 6.70415 8.02524 6.02775 7.79978L5.76283 7.71147C5.36988 7.58049 5.15751 7.15575 5.28849 6.76279Z" fill="#EBA500"/>
<path opacity="0.5" d="M9.74525 10C9.75022 10.2591 9.75021 10.5396 9.7502 10.8414L9.7502 13.5C9.7502 14.9354 9.75179 15.9365 9.85335 16.6919C9.86817 16.8021 9.88484 16.9046 9.9034 17H20.0222C20.9817 17 21.4614 17 21.8371 16.7523C22.2128 16.5045 22.4017 16.0636 22.7797 15.1818L23.2082 14.1818C24.0177 12.2929 24.4225 11.3485 23.9779 10.6743C23.5333 10 22.5058 10 20.4508 10H9.74525Z" fill="#EBA500"/>
<path d="M11.25 13C11.25 12.5858 11.5858 12.25 12 12.25H15C15.4142 12.25 15.75 12.5858 15.75 13C15.75 13.4142 15.4142 13.75 15 13.75H12C11.5858 13.75 11.25 13.4142 11.25 13Z" fill="#EBA500"/>
<path d="M11.5 22C12.3284 22 13 22.6716 13 23.5C13 24.3284 12.3284 25 11.5 25C10.6716 25 10 24.3284 10 23.5C10 22.6716 10.6716 22 11.5 22Z" fill="#EBA500"/>
<path d="M22 23.5001C22 22.6716 21.3284 22.0001 20.5 22.0001C19.6716 22.0001 19 22.6716 19 23.5001C19 24.3285 19.6716 25.0001 20.5 25.0001C21.3284 25.0001 22 24.3285 22 23.5001Z" fill="#EBA500"/>
</svg>
