<svg width="32" height="32" viewBox="0 0 32 32" fill="none" xmlns="http://www.w3.org/2000/svg">
<rect width="32" height="32" rx="16" fill="#F9F9F9"/>
<path opacity="0.5" d="M6 16C6 11.286 6 8.92893 7.46447 7.46447C8.92893 6 11.286 6 16 6C20.714 6 23.0711 6 24.5355 7.46447C26 8.92893 26 11.286 26 16C26 20.714 26 23.0711 24.5355 24.5355C23.0711 26 20.714 26 16 26C11.286 26 8.92893 26 7.46447 24.5355C6 23.0711 6 20.714 6 16Z" fill="#EBA500"/>
<path d="M7.46451 24.5355C8.92902 26 11.2861 26 16.0003 26C20.7145 26 23.0716 26 24.5361 24.5355C25.8931 23.1785 25.9927 21.0551 26 17H22.8402C21.935 17 21.4824 17 21.0846 17.183C20.6868 17.3659 20.3922 17.7096 19.8031 18.3968L19.1977 19.1032L19.1977 19.1032C18.6086 19.7904 18.314 20.1341 17.9162 20.317C17.5184 20.5 17.0658 20.5 16.1606 20.5H15.84C14.9348 20.5 14.4822 20.5 14.0844 20.317C13.6866 20.1341 13.392 19.7904 12.8029 19.1032L12.1975 18.3968C11.6084 17.7096 11.3138 17.3659 10.916 17.183C10.5181 17 10.0655 17 9.16035 17H6C6.0073 21.0551 6.10744 23.1785 7.46451 24.5355Z" fill="#EBA500"/>
<path d="M12 10.25C11.5858 10.25 11.25 10.5858 11.25 11C11.25 11.4142 11.5858 11.75 12 11.75H20C20.4142 11.75 20.75 11.4142 20.75 11C20.75 10.5858 20.4142 10.25 20 10.25H12Z" fill="#EBA500"/>
<path d="M14 13.75C13.5858 13.75 13.25 14.0858 13.25 14.5C13.25 14.9142 13.5858 15.25 14 15.25H18C18.4142 15.25 18.75 14.9142 18.75 14.5C18.75 14.0858 18.4142 13.75 18 13.75H14Z" fill="#EBA500"/>
</svg>
