<svg width="32" height="32" viewBox="0 0 32 32" fill="none" xmlns="http://www.w3.org/2000/svg">
<rect width="32" height="32" rx="16" fill="#F9F9F9"/>
<path opacity="0.5" d="M8.0828 15.8943C8.52171 13.5534 8.74117 12.3829 9.57434 11.6915C10.4075 11 11.5984 11 13.98 11H18.0209C20.4026 11 21.5934 11 22.4266 11.6915C23.2598 12.3829 23.4792 13.5534 23.9181 15.8943L24.6681 19.8943C25.2853 23.186 25.5939 24.8318 24.6942 25.9159C23.7945 27 22.12 27 18.7709 27H13.23C9.88097 27 8.20644 27 7.30672 25.9159C6.40701 24.8318 6.7156 23.186 7.3328 19.8943L8.0828 15.8943Z" fill="#EBA500"/>
<path d="M13.75 9.98509C13.75 8.74245 14.7574 7.73509 16 7.73509C17.2426 7.73509 18.25 8.74245 18.25 9.98509V10.9851C18.816 10.9853 19.3119 10.9868 19.7499 11C19.75 10.995 19.75 10.9901 19.75 10.9851V9.98509C19.75 7.91402 18.0711 6.23509 16 6.23509C13.9289 6.23509 12.25 7.91402 12.25 9.98509V10.9851C12.25 10.9901 12.25 10.995 12.2501 11C12.6881 10.9868 13.184 10.9853 13.75 10.9851V9.98509Z" fill="#EBA500"/>
<path d="M13.8782 19.75C14.1875 20.6249 15.0219 21.25 16.0004 21.25C16.9789 21.25 17.8133 20.6249 18.1226 19.75C18.2606 19.3595 18.6891 19.1548 19.0796 19.2928C19.4702 19.4309 19.6749 19.8594 19.5368 20.2499C19.0224 21.7054 17.6343 22.75 16.0004 22.75C14.3665 22.75 12.9784 21.7054 12.464 20.2499C12.3259 19.8594 12.5306 19.4309 12.9212 19.2928C13.3117 19.1548 13.7402 19.3595 13.8782 19.75Z" fill="#EBA500"/>
</svg>
