<svg width="16" height="16" viewBox="0 0 16 16" fill="none" xmlns="http://www.w3.org/2000/svg">
<path opacity="0.5" d="M4.16669 12.6667C4.16669 12.8759 4.29697 13.063 4.49321 13.1356C4.68945 13.2082 4.91015 13.1509 5.04632 12.9921L9.04632 8.3254C9.20681 8.13816 9.20681 7.86185 9.04632 7.67461L5.04632 3.00794C4.91015 2.84908 4.68946 2.7918 4.49321 2.86439C4.29697 2.93699 4.16669 3.1241 4.16669 3.33334L4.16669 12.6667Z" fill="#EB0000"/>
<path fill-rule="evenodd" clip-rule="evenodd" d="M7.00793 13.0463C6.79826 12.8666 6.77398 12.5509 6.95369 12.3413L10.6748 7.99999L6.95369 3.65872C6.77398 3.44905 6.79826 3.1334 7.00793 2.95369C7.21759 2.77398 7.53324 2.79826 7.71295 3.00793L11.713 7.67459C11.8734 7.86184 11.8734 8.13814 11.713 8.32539L7.71295 12.9921C7.53324 13.2017 7.21759 13.226 7.00793 13.0463Z" fill="#EB0000"/>
</svg>
