<svg width="32" height="32" viewBox="0 0 32 32" fill="none" xmlns="http://www.w3.org/2000/svg">
<rect width="32" height="32" rx="16" fill="#F9F9F9"/>
<path opacity="0.5" d="M6 16C6 11.286 6 8.92893 7.46447 7.46447C8.92893 6 11.286 6 16 6C20.714 6 23.0711 6 24.5355 7.46447C26 8.92893 26 11.286 26 16C26 20.714 26 23.0711 24.5355 24.5355C23.0711 26 20.714 26 16 26C11.286 26 8.92893 26 7.46447 24.5355C6 23.0711 6 20.714 6 16Z" fill="#EBA500"/>
<path d="M14.5431 11.5172C14.8288 11.2173 14.8172 10.7426 14.5172 10.4569C14.2173 10.1712 13.7426 10.1828 13.4569 10.4828L11.1429 12.9125L10.5431 12.2828C10.2574 11.9828 9.78271 11.9712 9.48276 12.2569C9.18281 12.5426 9.17123 13.0173 9.4569 13.3172L10.5998 14.5172C10.7413 14.6659 10.9376 14.75 11.1429 14.75C11.3481 14.75 11.5444 14.6659 11.686 14.5172L14.5431 11.5172Z" fill="#EBA500"/>
<path d="M17 12.25C16.5858 12.25 16.25 12.5858 16.25 13C16.25 13.4142 16.5858 13.75 17 13.75H22C22.4142 13.75 22.75 13.4142 22.75 13C22.75 12.5858 22.4142 12.25 22 12.25H17Z" fill="#EBA500"/>
<path d="M14.5431 18.5172C14.8288 18.2173 14.8172 17.7426 14.5172 17.4569C14.2173 17.1712 13.7426 17.1828 13.4569 17.4828L11.1429 19.9125L10.5431 19.2828C10.2574 18.9828 9.78271 18.9712 9.48276 19.2569C9.18281 19.5426 9.17123 20.0173 9.4569 20.3172L10.5998 21.5172C10.7413 21.6659 10.9376 21.75 11.1429 21.75C11.3481 21.75 11.5444 21.6659 11.686 21.5172L14.5431 18.5172Z" fill="#EBA500"/>
<path d="M17 19.25C16.5858 19.25 16.25 19.5858 16.25 20C16.25 20.4142 16.5858 20.75 17 20.75H22C22.4142 20.75 22.75 20.4142 22.75 20C22.75 19.5858 22.4142 19.25 22 19.25H17Z" fill="#EBA500"/>
</svg>
