<svg width="40" height="40" viewBox="0 0 40 40" fill="none" xmlns="http://www.w3.org/2000/svg">
<rect x="0.5" y="0.5" width="39" height="39" rx="7.5" fill="#EBA500" fill-opacity="0.05"/>
<rect x="0.5" y="0.5" width="39" height="39" rx="7.5" stroke="#EBA500"/>
<path d="M15.5 26C16.3284 26 17 26.6716 17 27.5C17 28.3284 16.3284 29 15.5 29C14.6716 29 14 28.3284 14 27.5C14 26.6716 14.6716 26 15.5 26Z" stroke="#EBA500" stroke-width="1.5"/>
<path d="M24.5 26.0001C25.3284 26.0001 26 26.6716 26 27.5001C26 28.3285 25.3284 29.0001 24.5 29.0001C23.6716 29.0001 23 28.3285 23 27.5001C23 26.6716 23.6716 26.0001 24.5 26.0001Z" stroke="#EBA500" stroke-width="1.5"/>
<path d="M10.2612 11.0918L10.51 10.3843H10.51L10.2612 11.0918ZM10.2488 10.2925C9.85799 10.1551 9.42984 10.3605 9.29246 10.7512C9.15507 11.142 9.36048 11.5702 9.75124 11.7075L10.2488 10.2925ZM12.5858 12.323L13.2051 11.8998V11.8998L12.5858 12.323ZM13.8877 22.5862L13.3435 23.1022H13.3435L13.8877 22.5862ZM28.6578 17.8828L29.3923 18.0342L29.3933 18.0296L28.6578 17.8828ZM28.158 20.3075L28.8926 20.4589L28.158 20.3075ZM28.7345 14.6971L28.1401 15.1544L28.7345 14.6971ZM27.1336 23.0504L26.6598 22.469L27.1336 23.0504ZM13.7081 17.76V15.0384H12.2081V17.76H13.7081ZM10.51 10.3843L10.2488 10.2925L9.75124 11.7075L10.0125 11.7994L10.51 10.3843ZM18.9375 24.25H24.2404V22.75H18.9375V24.25ZM13.7081 15.0384C13.7081 14.3312 13.7091 13.7411 13.6572 13.2616C13.6035 12.7652 13.487 12.3125 13.2051 11.8998L11.9666 12.7461C12.0569 12.8782 12.1266 13.0596 12.1659 13.423C12.2071 13.8032 12.2081 14.2984 12.2081 15.0384H13.7081ZM10.0125 11.7994C10.6801 12.0341 11.1188 12.1896 11.4417 12.3481C11.7449 12.4968 11.8786 12.6173 11.9666 12.7461L13.2051 11.8998C12.9209 11.484 12.543 11.2176 12.1024 11.0014C11.6814 10.7948 11.144 10.6072 10.51 10.3843L10.0125 11.7994ZM12.2081 17.76C12.2081 19.2125 12.2217 20.2599 12.3588 21.0601C12.5051 21.9144 12.7972 22.5261 13.3435 23.1022L14.432 22.0702C14.1118 21.7325 13.9391 21.4018 13.8372 20.8069C13.7261 20.1578 13.7081 19.249 13.7081 17.76H12.2081ZM18.9375 22.75C17.5207 22.75 16.5376 22.7482 15.797 22.6432C15.0821 22.5418 14.7045 22.3576 14.432 22.0702L13.3435 23.1022C13.9373 23.7286 14.6901 24.0013 15.5864 24.1283C16.4567 24.2518 17.5654 24.25 18.9375 24.25V22.75ZM12.9581 14.87H25.0888V13.37H12.9581V14.87ZM27.9232 17.7314L27.4235 20.1561L28.8926 20.4589L29.3923 18.0342L27.9232 17.7314ZM25.0888 14.87C25.9452 14.87 26.6989 14.871 27.2937 14.9375C27.5893 14.9705 27.8105 15.0164 27.9659 15.071C28.1273 15.1278 28.153 15.1713 28.1401 15.1544L29.329 14.2398C29.094 13.9344 28.7636 13.7615 28.4632 13.6559C28.1567 13.5482 27.8101 13.4859 27.4604 13.4468C26.7646 13.369 25.9174 13.37 25.0888 13.37V14.87ZM29.3933 18.0296C29.5625 17.1817 29.7062 16.4702 29.7414 15.9004C29.7775 15.3142 29.7108 14.7362 29.329 14.2398L28.1401 15.1544C28.2021 15.2351 28.2706 15.3804 28.2442 15.808C28.2168 16.2519 28.1002 16.8448 27.9223 17.7359L29.3933 18.0296ZM24.2404 24.25C25.0021 24.25 25.6413 24.2513 26.1566 24.1882C26.6923 24.1227 27.1809 23.9794 27.6074 23.6318L26.6598 22.469C26.5346 22.571 26.3571 22.6525 25.9744 22.6994C25.5712 22.7487 25.0397 22.75 24.2404 22.75V24.25ZM27.4235 20.1561C27.2621 20.9389 27.1535 21.4593 27.0238 21.8442C26.9007 22.2095 26.785 22.367 26.6598 22.469L27.6074 23.6318C28.0339 23.2842 28.2729 22.8346 28.4453 22.3232C28.6111 21.8312 28.7388 21.2049 28.8926 20.4589L27.4235 20.1561Z" fill="#EBA500"/>
<path d="M21 21V19M21 19V17M21 19H23M21 19H19" stroke="#EBA500" stroke-width="1.5" stroke-linecap="round"/>
</svg>
