<svg width="36" height="36" viewBox="0 0 36 36" fill="none" xmlns="http://www.w3.org/2000/svg">
<path fill-rule="evenodd" clip-rule="evenodd" d="M33 18C33 26.2843 26.2843 33 18 33C9.71573 33 3 26.2843 3 18C3 9.71573 9.71573 3 18 3C26.2843 3 33 9.71573 33 18ZM22.5 13.5C22.5 15.9853 20.4853 18 18 18C15.5147 18 13.5 15.9853 13.5 13.5C13.5 11.0147 15.5147 9 18 9C20.4853 9 22.5 11.0147 22.5 13.5ZM18 30.75C20.6761 30.75 23.1596 29.9256 25.2104 28.5168C26.1162 27.8946 26.5033 26.7094 25.9766 25.7448C24.8849 23.7454 22.6353 22.5 17.9999 22.5C13.3645 22.5 11.115 23.7453 10.0232 25.7447C9.49657 26.7092 9.88365 27.8945 10.7894 28.5167C12.8403 29.9255 15.3238 30.75 18 30.75Z" fill="#EBA500"/>
</svg>
